<svg width="29" height="30" viewBox="0 0 29 30" fill="none" xmlns="http://www.w3.org/2000/svg">
<path d="M27.9082 1.72501C27.8901 1.26101 27.6947 0.822135 27.3632 0.500504C27.0317 0.178874 26.5898 -0.000507442 26.1302 8.72984e-06H2.87155C2.41134 -0.00144021 1.96852 0.177527 1.63625 0.499253C1.30399 0.82098 1.10819 1.26038 1.09004 1.72501L0.00154722 28.125C-0.0084666 28.3676 0.0302076 28.6098 0.115242 28.8369C0.200277 29.064 0.329913 29.2714 0.496349 29.4466C0.662785 29.6217 0.862579 29.7611 1.08371 29.8562C1.30483 29.9513 1.54272 30.0002 1.78305 30H27.217C27.4573 30.0002 27.6952 29.9513 27.9163 29.8562C28.1374 29.7611 28.3372 29.6217 28.5037 29.4466C28.6701 29.2714 28.7997 29.064 28.8848 28.8369C28.9698 28.6098 29.0085 28.3676 28.9985 28.125L27.9082 1.72501ZM23.1106 24.3516L19.6105 27.888L20.683 1.87501C20.6917 1.64545 20.6568 1.41632 20.5803 1.20001H23.1106V24.3516ZM23.7044 25.449L27.021 28.8H20.3873L23.7044 25.449ZM26.7241 1.77481L27.8007 27.8886L24.3006 24.3486V1.20001H26.1302C26.2835 1.19987 26.4309 1.25962 26.5416 1.36674C26.6522 1.47387 26.7176 1.62009 26.7241 1.77481ZM1.18921 28.1748L2.27771 1.77481C2.284 1.61998 2.34933 1.47361 2.46002 1.36636C2.57071 1.2591 2.71818 1.19928 2.87155 1.19941H18.9051C18.9852 1.19934 19.0645 1.21565 19.1382 1.24737C19.2119 1.27908 19.2786 1.32555 19.334 1.38396C19.3895 1.44237 19.4327 1.51152 19.4611 1.58725C19.4894 1.66298 19.5023 1.74372 19.4989 1.82461L18.4104 28.2252C18.404 28.3799 18.3386 28.5261 18.2279 28.6333C18.1172 28.7404 17.9698 28.8001 17.8166 28.8H1.78305C1.70292 28.8001 1.62361 28.7838 1.54989 28.752C1.47616 28.7203 1.40956 28.6739 1.35407 28.6155C1.29859 28.557 1.25539 28.4879 1.22705 28.4122C1.19872 28.3364 1.18585 28.2557 1.18921 28.1748Z" fill="white"/>
<path d="M17.1723 6.00001V3.60001C17.1723 3.44088 17.1097 3.28827 16.9983 3.17574C16.887 3.06322 16.7359 3.00001 16.5784 3.00001C16.4209 3.00001 16.2699 3.06322 16.1585 3.17574C16.0471 3.28827 15.9846 3.44088 15.9846 3.60001V6.00001C15.9846 7.43218 15.4215 8.80569 14.4192 9.81838C13.4169 10.8311 12.0575 11.4 10.6401 11.4C9.22263 11.4 7.86323 10.8311 6.86094 9.81838C5.85866 8.80569 5.29558 7.43218 5.29558 6.00001V3.60001C5.29558 3.44088 5.23301 3.28827 5.12165 3.17574C5.01028 3.06322 4.85924 3.00001 4.70174 3.00001C4.54425 3.00001 4.3932 3.06322 4.28184 3.17574C4.17047 3.28827 4.10791 3.44088 4.10791 3.60001V6.00001C4.10791 7.75044 4.79612 9.42917 6.02114 10.6669C7.24616 11.9047 8.90764 12.6 10.6401 12.6C12.3725 12.6 14.034 11.9047 15.259 10.6669C16.484 9.42917 17.1723 7.75044 17.1723 6.00001Z" fill="white"/>
</svg>
