<svg width="45" height="32" viewBox="0 0 45 32" fill="none" xmlns="http://www.w3.org/2000/svg">
<path d="M16.864 12.0334C17.033 12.0334 17.2021 11.9682 17.331 11.8376L18.0355 11.1245C18.2934 10.8634 18.2934 10.4402 18.0355 10.1791C17.7776 9.91804 17.3593 9.91804 17.1015 10.1791L16.397 10.8922C16.1391 11.1533 16.1391 11.5765 16.397 11.8376C16.5259 11.9682 16.695 12.0334 16.864 12.0334Z" fill="white"/>
<path d="M23.442 11.1245C23.5709 11.255 23.74 11.3203 23.909 11.3203C24.078 11.3203 24.2471 11.2551 24.376 11.1245C24.6339 10.8634 24.6339 10.4402 24.376 10.1791L23.6715 9.46603C23.4136 9.20495 22.9954 9.20495 22.7375 9.46603C22.4796 9.72711 22.4796 10.1503 22.7375 10.4114L23.442 11.1245Z" fill="white"/>
<path d="M35.4185 10.4114C35.5474 10.5419 35.7165 10.6072 35.8855 10.6072C36.0545 10.6072 36.2236 10.542 36.3525 10.4114C36.6105 10.1503 36.6105 9.72711 36.3525 9.46603L35.648 8.75294C35.3901 8.49186 34.9719 8.49186 34.714 8.75294C34.4561 9.01402 34.4561 9.43724 34.714 9.69832L35.4185 10.4114Z" fill="white"/>
<path d="M19.215 5.41977C19.3439 5.55026 19.513 5.6156 19.682 5.6156C19.851 5.6156 20.0201 5.55035 20.149 5.41977C20.4069 5.15868 20.4069 4.73547 20.149 4.47438L19.4445 3.76129C19.1866 3.50021 18.7683 3.50021 18.5105 3.76129C18.2526 4.02237 18.2526 4.44559 18.5105 4.70667L19.215 5.41977Z" fill="white"/>
<path d="M14.046 8.46797C14.215 8.46797 14.3841 8.40272 14.513 8.27213L15.2175 7.55904C15.4754 7.29796 15.4754 6.87474 15.2175 6.61366C14.9595 6.35258 14.5413 6.35258 14.2835 6.61366L13.579 7.32675C13.3211 7.58783 13.3211 8.01105 13.579 8.27213C13.7079 8.40272 13.877 8.46797 14.046 8.46797Z" fill="white"/>
<path d="M9.35199 11.1245C9.48091 11.255 9.64999 11.3203 9.81898 11.3203C9.98797 11.3203 10.1571 11.2551 10.286 11.1245C10.5439 10.8634 10.5439 10.4402 10.286 10.1791L9.58148 9.46603C9.32354 9.20495 8.90533 9.20495 8.64748 9.46603C8.38955 9.72711 8.38955 10.1503 8.64748 10.4114L9.35199 11.1245Z" fill="white"/>
<path d="M29.545 12.0334C29.714 12.0334 29.8831 11.9682 30.012 11.8376L30.7165 11.1245C30.9744 10.8634 30.9744 10.4402 30.7165 10.1791C30.4586 9.91804 30.0404 9.91804 29.7825 10.1791L29.078 10.8922C28.8201 11.1533 28.8201 11.5765 29.078 11.8376C29.2069 11.9682 29.376 12.0334 29.545 12.0334Z" fill="white"/>
<path d="M25.318 6.32869C25.487 6.32869 25.6561 6.26344 25.785 6.13286L26.4895 5.41977C26.7474 5.15868 26.7474 4.73547 26.4895 4.47438C26.2316 4.2133 25.8134 4.2133 25.5555 4.47438L24.851 5.18748C24.5931 5.44856 24.5931 5.87178 24.851 6.13286C24.9799 6.26344 25.149 6.32869 25.318 6.32869Z" fill="white"/>
<path d="M29.545 7.75487C29.714 7.75487 29.8831 7.68963 30.012 7.55904L30.7165 6.84595C30.9744 6.58487 30.9744 6.16165 30.7165 5.90057C30.4586 5.63949 30.0404 5.63949 29.7825 5.90057L29.078 6.61366C28.8201 6.87474 28.8201 7.29796 29.078 7.55904C29.2069 7.68963 29.376 7.75487 29.545 7.75487Z" fill="white"/>
<path d="M42.226 20.6797H41.4775V18.7573L41.4778 18.7572C41.8703 18.593 42.2092 18.4513 42.9305 18.4513C43.2953 18.4513 43.591 18.1519 43.591 17.7827C43.591 17.4135 43.2953 17.1142 42.9305 17.1142C42.282 17.1142 41.8368 17.2084 41.4775 17.3272V15.5989H41.5215C42.7013 15.5989 43.591 14.6982 43.591 13.5036V11.3649C43.591 9.94915 41.7017 7.11291 38.2003 4.64526C35.1934 2.52613 30.0288 0 22.5 0C14.9712 0 9.80657 2.52613 6.79967 4.64526C3.2983 7.11291 1.409 9.94915 1.409 11.3649V13.5036C1.409 14.6982 2.2987 15.5989 3.47847 15.5989H3.5225V17.3283C3.16347 17.209 2.71849 17.1142 2.06947 17.1142C1.70472 17.1142 1.409 17.4135 1.409 17.7827C1.409 18.1519 1.70472 18.4513 2.06947 18.4513C2.78824 18.4513 3.12596 18.5929 3.51705 18.7569C3.51889 18.7577 3.52074 18.7585 3.5225 18.7592V20.6797H2.77397C1.24441 20.6797 0 21.9393 0 23.4875V24.9136C0 26.4619 1.24441 27.7214 2.77397 27.7214H2.818V28.4816C2.818 30.4217 4.37733 32 6.29401 32H38.7061C40.6227 32 42.182 30.4217 42.182 28.4816V27.7214H42.226C43.7556 27.7214 45 26.4619 45 24.9136V23.4875C45 21.9393 43.7556 20.6797 42.226 20.6797ZM2.72994 13.5036V11.3649C2.72994 10.6143 4.18676 8.11606 7.55454 5.74253C10.4061 3.73277 15.3138 1.33705 22.5 1.33705C29.6862 1.33705 34.5939 3.73277 37.4455 5.74253C40.8132 8.11606 42.2701 10.6143 42.2701 11.3649V13.5036C42.2701 13.95 41.9623 14.2618 41.5215 14.2618H3.47847C3.03772 14.2618 2.72994 13.95 2.72994 13.5036ZM40.1566 15.5989V17.7799C39.9788 17.8096 39.7736 17.8273 39.5207 17.8273C38.7992 17.8273 38.4604 17.6856 38.068 17.5214C37.6116 17.3305 37.0944 17.1142 36.1108 17.1142C35.1277 17.1142 34.6107 17.3306 34.1546 17.5215C33.7626 17.6856 33.424 17.8273 32.7033 17.8273C31.9834 17.8273 31.6451 17.6856 31.2536 17.5216C30.7978 17.3305 30.2812 17.1142 29.2988 17.1142C28.3164 17.1142 27.7999 17.3306 27.3441 17.5216C26.9526 17.6856 26.6144 17.8273 25.8947 17.8273C25.1747 17.8273 24.8364 17.6856 24.4448 17.5216C23.9889 17.3306 23.4722 17.1142 22.4897 17.1142C21.5072 17.1142 20.9905 17.3306 20.5347 17.5216C20.143 17.6856 19.8048 17.8273 19.0848 17.8273C18.3648 17.8273 18.0264 17.6856 17.6348 17.5216C17.1789 17.3306 16.6623 17.1142 15.6797 17.1142C14.6976 17.1142 14.181 17.3306 13.7254 17.5216C13.3339 17.6856 12.9958 17.8273 12.2762 17.8273C11.5571 17.8273 11.2193 17.6857 10.828 17.5217C10.3725 17.3307 9.85614 17.1142 8.87433 17.1142C7.89208 17.1142 7.37542 17.3306 6.9197 17.5216C6.52817 17.6856 6.19001 17.8273 5.47036 17.8273C5.22159 17.8273 5.01913 17.81 4.84362 17.781V15.5989H40.1566ZM4.84344 19.1306C5.02987 19.1519 5.23647 19.1643 5.47019 19.1643C6.45244 19.1643 6.96901 18.9479 7.42474 18.757C7.81626 18.593 8.15442 18.4513 8.87407 18.4513C9.59319 18.4513 9.931 18.5929 10.3223 18.7569C10.7778 18.9478 11.2941 19.1643 12.2759 19.1643C13.2581 19.1643 13.7746 18.9479 14.2303 18.757C14.6217 18.593 14.9599 18.4513 15.6795 18.4513C16.3995 18.4513 16.7378 18.593 17.1294 18.757C17.5852 18.9479 18.102 19.1643 19.0845 19.1643C20.067 19.1643 20.5837 18.9479 21.0396 18.757C21.4313 18.593 21.7695 18.4513 22.4895 18.4513C23.2095 18.4513 23.5479 18.593 23.9396 18.757C24.3955 18.9479 24.9121 19.1643 25.8946 19.1643C26.877 19.1643 27.3936 18.9479 27.8493 18.757C28.2409 18.593 28.5791 18.4513 29.2988 18.4513C30.0186 18.4513 30.3569 18.5929 30.7485 18.757C31.2043 18.948 31.7209 19.1643 32.7034 19.1643C33.6864 19.1643 34.2034 18.9479 34.6595 18.7571C35.0516 18.593 35.3902 18.4513 36.1109 18.4513C36.8323 18.4513 37.1711 18.593 37.5635 18.7572C38.0199 18.9481 38.5372 19.1643 39.5207 19.1643C39.7582 19.1643 39.9679 19.1515 40.1566 19.1297V20.6797H21.0905C19.9495 20.68 19.0215 21.6195 19.0215 22.7744V23.4875C19.0215 23.7101 18.9253 23.9206 18.7574 24.0651C18.5874 24.2114 18.3689 24.2715 18.1424 24.2342C17.7959 24.1772 17.5245 23.8156 17.5245 23.4112V22.8507C17.5245 21.7912 16.7821 20.87 15.7976 20.7078C15.1914 20.608 14.5779 20.7794 14.1148 21.1782C13.6513 21.5772 13.3855 22.159 13.3855 22.7744V26.9766C13.3855 27.3811 13.1141 27.7427 12.7676 27.7997C12.5411 27.8368 12.3226 27.777 12.1526 27.6305C11.9847 27.486 11.8885 27.2755 11.8885 27.0529V23.4875C11.8885 21.9393 10.644 20.6797 9.11431 20.6797H4.84344V19.1306ZM1.32094 24.9136V23.4875C1.32094 22.6765 1.97278 22.0167 2.77397 22.0167H9.11448C9.91568 22.0167 10.5675 22.6765 10.5675 23.4875V26.3844H2.77397C1.97278 26.3844 1.32094 25.7246 1.32094 24.9136ZM40.8611 28.4816C40.8611 29.6844 39.8943 30.663 38.706 30.663H6.29401C5.10569 30.663 4.13894 29.6844 4.13894 28.4816V27.7214H10.6755C10.7939 28.0779 11.0066 28.3992 11.2968 28.6491C11.6735 28.9734 12.1494 29.1473 12.6402 29.1473C12.7529 29.1473 12.8665 29.138 12.9796 29.1194C13.7228 28.997 14.3274 28.4418 14.5795 27.7214H40.8611V28.4816ZM43.6791 24.9136C43.6791 25.7246 43.0272 26.3844 42.226 26.3844H14.7065V22.7744C14.7065 22.5517 14.8027 22.3413 14.9706 22.1968C15.1406 22.0504 15.3591 21.9903 15.5856 22.0276C15.9321 22.0846 16.2035 22.4463 16.2035 22.8507V23.4112C16.2035 24.4706 16.9459 25.3919 17.9303 25.554C18.5365 25.6537 19.15 25.4824 19.6132 25.0836C20.0767 24.6847 20.3425 24.103 20.3425 23.4875V22.7744C20.3425 22.3566 20.6782 22.0167 21.091 22.0167H42.226C43.0272 22.0167 43.6791 22.6765 43.6791 23.4875V24.9136Z" fill="white"/>
</svg>
