<svg width="27" height="34" viewBox="0 0 27 34" fill="none" xmlns="http://www.w3.org/2000/svg">
<path d="M17.7746 0.406643L17.7664 0.398608C17.6149 0.242414 17.406 0.155026 17.188 0.157537C17.1612 0.156281 17.134 0.158793 17.1077 0.165824H4.76783C2.54972 0.166326 0.751981 1.96431 0.750977 4.18266V29.8903C0.751981 32.1084 2.54972 33.9064 4.76783 33.9072H22.6591C24.8772 33.9064 26.6752 32.1084 26.676 29.8903V9.6291C26.6744 9.41641 26.5911 9.21225 26.4429 9.05907L17.7746 0.406643ZM17.9914 2.8972L23.9523 8.84211H20.4016C19.0722 8.83809 17.9951 7.76131 17.9914 6.43215V2.8972ZM22.6671 32.2925H4.76783C3.43842 32.2887 2.36189 31.2117 2.35762 29.8823V4.17438C2.36189 2.84522 3.43842 1.76819 4.76783 1.76442H16.3847V6.43215C16.3855 8.65 18.1835 10.448 20.4016 10.449H25.0693V29.8823C25.0718 31.2112 23.996 32.2907 22.6671 32.2925Z" fill="white"/>
</svg>
