<svg width="29" height="36" viewBox="0 0 29 36" fill="none" xmlns="http://www.w3.org/2000/svg">
<path d="M6.66193 26.6864C7.34864 27.4915 8.05275 28.2809 8.75425 29.0677C10.5054 31.0295 12.314 33.0575 13.771 35.2909C13.932 35.5372 14.2061 35.6852 14.5003 35.6852C14.7945 35.6852 15.0686 35.5363 15.2297 35.29C15.932 34.2134 16.6814 33.1907 17.5213 32.1645C18.4082 31.0818 19.3551 30.0312 20.3595 28.9198C24.2456 24.6132 28.2649 20.1586 28.4259 13.9259C28.4259 6.3772 22.0489 0 14.5003 0C6.95176 0 0.574702 6.3772 0.574702 13.9485C0.606905 15.161 0.787067 16.383 1.11345 17.5823C2.06996 21.0995 4.379 24.0074 6.66193 26.6864ZM14.5003 1.74074C21.1054 1.74074 26.6852 7.32068 26.6852 13.9033C26.5425 19.4702 22.7417 23.6819 19.0662 27.7543C18.094 28.8327 17.0879 29.9477 16.1749 31.0626C15.5761 31.7929 15.0225 32.5222 14.4968 33.269C13.1278 31.3542 11.569 29.6074 10.0537 27.9093C9.36002 27.1312 8.66548 26.353 7.98748 25.5567C5.74284 22.9238 3.65661 20.2979 2.79323 17.1254C2.50427 16.0609 2.34238 14.9773 2.3154 13.9259C2.3154 7.32068 7.89522 1.74074 14.5003 1.74074Z" fill="white"/>
<path d="M12.145 22.3067C12.8927 22.5165 13.6664 22.6226 14.4471 22.6226C18.073 22.6226 21.3638 20.3693 22.638 17.0157C23.0131 16.0279 23.2028 14.9878 23.2028 13.925C23.2028 9.47223 19.7336 5.66524 15.3053 5.25791C10.8517 4.84361 6.73756 8.02655 5.94118 12.3323C5.13002 16.7233 7.85508 21.1039 12.145 22.3067ZM7.65316 12.6508C8.25196 9.4087 11.2077 6.9647 14.5254 6.9647C14.73 6.9647 14.938 6.97427 15.1451 6.99255C18.6875 7.31807 21.4621 10.3635 21.4621 13.9259C21.4621 14.7771 21.3098 15.6092 21.0104 16.3986C19.9912 19.0811 17.3541 20.8828 14.4462 20.8828C13.8257 20.8828 13.2086 20.7984 12.6142 20.6312C9.18237 19.6686 7.00301 16.1628 7.65316 12.6508Z" fill="white"/>
</svg>
