<svg width="31" height="35" viewBox="0 0 31 35" fill="none" xmlns="http://www.w3.org/2000/svg">
<path d="M0.875 0.4375C0.659512 0.4375 0.452849 0.523102 0.300476 0.675476C0.148103 0.827849 0.0625 1.03451 0.0625 1.25V33.75C0.0625 33.9655 0.148103 34.1722 0.300476 34.3245C0.452849 34.4769 0.659512 34.5625 0.875 34.5625C1.09049 34.5625 1.29715 34.4769 1.44952 34.3245C1.6019 34.1722 1.6875 33.9655 1.6875 33.75V24.533C4.01844 23.6277 6.49949 23.1712 9 23.1875C11.1493 23.2938 13.256 23.8263 15.1978 24.754C17.3307 25.7617 19.6432 26.3341 22 26.4375C24.8538 26.2433 27.6709 25.683 30.3818 24.7703C30.5435 24.7164 30.6842 24.613 30.7839 24.4748C30.8836 24.3366 30.9374 24.1705 30.9375 24V4.5C30.9375 4.3711 30.9069 4.24405 30.8481 4.12933C30.7894 4.01461 30.7041 3.91553 30.5995 3.84025C30.4955 3.76443 30.3747 3.71481 30.2474 3.69557C30.1201 3.67634 29.99 3.68806 29.8682 3.72975C27.3209 4.5802 24.678 5.11183 22 5.3125C19.8507 5.20615 17.744 4.67367 15.8022 3.746C13.6693 2.73826 11.3568 2.16594 9 2.0625C6.50987 2.05038 4.03625 2.46705 1.6875 3.29425V1.25C1.6875 1.03451 1.6019 0.827849 1.44952 0.675476C1.29715 0.523102 1.09049 0.4375 0.875 0.4375ZM9 3.6875C11.1493 3.79385 13.256 4.32633 15.1978 5.254C17.3307 6.26174 19.6432 6.83406 22 6.9375C24.4837 6.80024 26.9404 6.35204 29.3125 5.60337V23.4036C26.9432 24.1761 24.4867 24.6494 22 24.8125C19.8507 24.7062 17.744 24.1737 15.8022 23.246C13.6693 22.2383 11.3568 21.6659 9 21.5625C6.50987 21.5504 4.03625 21.9671 1.6875 22.7943V5.033C4.01844 4.12772 6.49949 3.6712 9 3.6875Z" fill="white"/>
</svg>
