<svg width="32" height="32" viewBox="0 0 32 32" fill="none" xmlns="http://www.w3.org/2000/svg">
<path d="M7.56961 31.0936C7.25367 31.0931 6.94162 31.0238 6.65521 30.8904C6.3688 30.757 6.11491 30.5628 5.91123 30.3213C5.70754 30.0798 5.55896 29.7968 5.47583 29.492C5.3927 29.1872 5.37702 28.8679 5.42989 28.5564L6.78114 20.7055C6.80117 20.5887 6.79246 20.4687 6.75577 20.356C6.71908 20.2433 6.65551 20.1413 6.57055 20.0586L0.846421 14.4991C0.555577 14.217 0.34969 13.859 0.25216 13.4658C0.154629 13.0726 0.169368 12.6598 0.294699 12.2746C0.420031 11.8893 0.65093 11.5469 0.961153 11.2863C1.27138 11.0257 1.64848 10.8574 2.04961 10.8004L9.96233 9.65615C10.0803 9.63939 10.1923 9.59419 10.2889 9.52444C10.3854 9.45469 10.4635 9.36249 10.5165 9.2558L14.0535 2.11358C14.2336 1.75084 14.5115 1.4456 14.8557 1.23221C15.2 1.01882 15.597 0.905762 16.002 0.905762C16.407 0.905762 16.804 1.01882 17.1482 1.23221C17.4925 1.4456 17.7703 1.75084 17.9505 2.11358L21.4882 9.25652C21.541 9.36297 21.6189 9.45498 21.7152 9.5246C21.8115 9.59422 21.9233 9.63937 22.0409 9.65615L29.9522 10.8018C30.3533 10.8588 30.7304 11.0271 31.0407 11.2877C31.3509 11.5483 31.5818 11.8907 31.7071 12.276C31.8324 12.6613 31.8472 13.074 31.7497 13.4672C31.6521 13.8605 31.4462 14.2185 31.1554 14.5005L25.4313 20.0601C25.3464 20.1427 25.2828 20.2448 25.2461 20.3575C25.2094 20.4702 25.2007 20.5901 25.2207 20.7069L26.5719 28.5571C26.6399 28.9564 26.5949 29.3668 26.4418 29.7419C26.2888 30.117 26.0339 30.4417 25.7059 30.6795C25.378 30.9173 24.9901 31.0586 24.586 31.0874C24.182 31.1163 23.7779 31.0315 23.4195 30.8427L16.3455 27.1369C16.2397 27.0811 16.1219 27.0519 16.0023 27.0519C15.8827 27.0519 15.7649 27.0811 15.6591 27.1369L8.58376 30.8435C8.27111 31.0081 7.92298 31.094 7.56961 31.0936ZM15.9998 2.34358C15.8623 2.34137 15.7271 2.37866 15.6101 2.45103C15.4931 2.52339 15.3994 2.62779 15.34 2.75183L11.8023 9.89405C11.646 10.2095 11.4154 10.4822 11.1303 10.6886C10.8452 10.8951 10.5142 11.0292 10.1657 11.0793L2.25948 12.225C2.12434 12.2437 1.99717 12.3 1.89244 12.3875C1.78771 12.4749 1.70964 12.59 1.6671 12.7196C1.62456 12.8493 1.61927 12.9882 1.65182 13.1207C1.68437 13.2532 1.75346 13.3739 1.85123 13.4691L7.57464 19.0286C7.82727 19.2736 8.01638 19.5765 8.12559 19.911C8.23479 20.2455 8.26081 20.6016 8.20139 20.9484L6.85014 28.8001C6.8254 28.9337 6.83931 29.0717 6.89023 29.1977C6.94116 29.3238 7.02699 29.4326 7.13764 29.5116C7.2484 29.5942 7.38043 29.6434 7.5182 29.6534C7.65597 29.6635 7.79375 29.634 7.91533 29.5684L14.9936 25.8625C15.3049 25.6981 15.6517 25.6121 16.0038 25.6121C16.3559 25.6121 16.7027 25.6981 17.014 25.8625L24.0886 29.5677C24.2103 29.6333 24.3482 29.6629 24.4861 29.6528C24.624 29.6427 24.7562 29.5935 24.867 29.5109C24.9777 29.4319 25.0635 29.323 25.1145 29.197C25.1654 29.071 25.1793 28.933 25.1545 28.7993L23.8033 20.9484C23.7438 20.6015 23.7698 20.2453 23.879 19.9106C23.9882 19.576 24.1774 19.273 24.43 19.0279L30.1535 13.4684C30.2512 13.3732 30.3203 13.2525 30.3529 13.12C30.3854 12.9875 30.3801 12.8486 30.3376 12.7189C30.295 12.5893 30.217 12.4742 30.1122 12.3867C30.0075 12.2993 29.8803 12.243 29.7452 12.2242L21.8332 11.0793C21.4851 11.0291 21.1543 10.8951 20.8695 10.6888C20.5846 10.4824 20.3542 10.21 20.198 9.89477L16.6596 2.75183C16.6002 2.62779 16.5065 2.52339 16.3896 2.45103C16.2726 2.37866 16.1373 2.34137 15.9998 2.34358Z" fill="white"/>
</svg>
