<svg width="36" height="36" viewBox="0 0 36 36" fill="none" xmlns="http://www.w3.org/2000/svg">
<path d="M35.4 13.2H27.5862C27.2708 5.86814 21.2081 0 13.8 0C6.1908 0 0 6.1908 0 13.8C0 21.2081 5.86814 27.2708 13.2 27.5862V35.4C13.2 35.7312 13.4688 36 13.8 36H35.4C35.7311 36 35.9999 35.7312 35.9999 35.4V13.8C36 13.4688 35.7312 13.2 35.4 13.2ZM1.20002 13.8C1.20002 6.85202 6.85202 1.20002 13.8 1.20002C20.748 1.20002 26.4 6.85202 26.4 13.8C26.4 20.748 20.748 26.4 13.8 26.4C6.85202 26.4 1.20002 20.748 1.20002 13.8ZM34.8 34.8H14.4V27.5862C21.5329 27.2794 27.2794 21.5329 27.5862 14.4H34.8L34.8 34.8Z" fill="white"/>
</svg>
