<svg width="38" height="38" viewBox="0 0 38 38" fill="none" xmlns="http://www.w3.org/2000/svg">
<path d="M32.0625 37.3041L26.4729 31.7146L28.1521 30.0354L30.875 32.7584V7.71875C30.875 4.76751 28.4826 2.375 25.5312 2.375C22.58 2.375 20.1875 4.76751 20.1875 7.71875V13.0625H17.8125V7.71875C17.8125 3.45577 21.2683 0 25.5312 0C29.7942 0 33.25 3.45577 33.25 7.71875V32.7584L35.9729 30.0354L37.6521 31.7146L32.0625 37.3041Z" fill="white"/>
<path d="M20.1875 22.5625H17.8125V20.1875H20.1875V22.5625Z" fill="white"/>
<path d="M20.1875 17.8125H17.8125V15.4375H20.1875V17.8125Z" fill="white"/>
<path d="M17.8122 24.9375H20.1872V30.2813C20.1872 34.5443 16.7314 38 12.4685 38C8.20549 38 4.74972 34.5443 4.74972 30.2813V5.24167L2.02678 7.96461L0.347656 6.28548L5.93722 0.695923L11.5268 6.28548L9.84766 7.96461L7.12472 5.24167V30.2813C7.12472 33.2326 9.51723 35.625 12.4685 35.625C15.4198 35.625 17.8122 33.2326 17.8122 30.2813V24.9375Z" fill="white"/>
</svg>
