<svg width="23" height="23" viewBox="0 0 23 23" fill="none" xmlns="http://www.w3.org/2000/svg">
<path d="M8.94022 0C4.00313 0 0 4.00267 0 8.93924C0 13.8758 4.00313 17.8785 8.94025 17.8785C10.8388 17.8785 12.5994 17.2864 14.0467 16.2778L14.0478 16.2768L20.6783 22.9065C20.8013 23.0296 20.997 23.0327 21.1232 22.9065L22.9102 21.1197C23.0332 20.9967 23.0269 20.7927 22.9091 20.6749L16.2796 14.0462C17.2883 12.598 17.8805 10.8375 17.8805 8.93924C17.8805 4.00267 13.8773 0 8.94022 0ZM8.94022 15.7751C5.16427 15.7751 2.10356 12.7148 2.10356 8.93924C2.10356 5.16372 5.1643 2.10336 8.94022 2.10336C12.7161 2.10336 15.7769 5.16372 15.7769 8.93924C15.7769 12.7148 12.7162 15.7751 8.94022 15.7751Z" fill="white"/>
</svg>
